<?xml version="1.0" encoding="utf-8"?>
<!-- Generator: Adobe Illustrator 16.0.0, SVG Export Plug-In . SVG Version: 6.00 Build 0)  -->
<!DOCTYPE svg PUBLIC "-//W3C//DTD SVG 1.1//EN" "http://www.w3.org/Graphics/SVG/1.1/DTD/svg11.dtd">
<svg version="1.1" id="Layer_1" xmlns="http://www.w3.org/2000/svg" xmlns:xlink="http://www.w3.org/1999/xlink" x="0px" y="0px"
	 width="250px" height="49.917px" viewBox="-111.5 484.5 250 49.917" enable-background="new -111.5 484.5 250 49.917"
	 xml:space="preserve">
<circle cx="15.013" cy="508.899" r="20.587"/>
<g>
	<path fill="#FFFFFF" d="M15.011,530.325c-11.726,0-21.265-9.54-21.265-21.266c0-11.725,9.54-21.264,21.265-21.264
		s21.266,9.54,21.266,21.264C36.277,520.785,26.737,530.325,15.011,530.325z M15.011,488.966c-11.08,0-20.094,9.012-20.094,20.093
		c0,11.082,9.014,20.094,20.094,20.094c11.08,0,20.094-9.013,20.094-20.094C35.105,497.978,26.091,488.966,15.011,488.966z"/>
</g>
<g>
	<path fill="#FFFFFF" d="M33.901,509.059c0,10.432-8.456,18.891-18.89,18.891c-10.431,0-18.887-8.458-18.887-18.891
		c0-10.432,8.456-18.889,18.887-18.889C25.445,490.169,33.901,498.627,33.901,509.059z"/>
</g>
<g>
	<g>
		<path d="M8.637,494.592c0-2.121-0.508-3.118-1.583-2.667c-0.422,0.177-0.714,0.293-1.293,0.489l0.349-0.725
			c0-0.094,0.729-0.4,0.918-0.498c0.92-0.409,2.246-0.833,3.037-1.34c0.222-0.158,0.898-0.13,0.866,0.251
			c-0.032,0.252-0.014,3.065-0.014,5.884v3.672c1.014-0.98,2.818-1.583,4.371-1.583c2.788,0,5.795,2.249,5.795,6.778
			c0,3.706-2.976,7.189-6.586,7.189c-1.774,0-3.008-0.38-3.737-0.824l-1.267,0.698c-0.128,0.095-0.222,0.126-0.413,0.095
			l-0.379-0.095c-0.126-0.032-0.103-0.079-0.088-0.239c0.038-0.442,0.025-3.087,0.025-5.396L8.637,494.592L8.637,494.592z
			 M10.918,504.854c0,2.628,0.095,3.577,0.476,4.592c0.316,0.761,1.646,1.583,3.008,1.583c1.899,0,4.244-1.298,4.244-5.448
			c0-3.073-1.615-5.986-4.719-5.986c-1.172,0-2.883,0.398-3.009,2.331L10.918,504.854L10.918,504.854z"/>
	</g>
</g>
<path d="M18.847,499.345c0.025,0.003,0.187,0.035,0.378-0.102c0.838-0.598,1.893-1.19,2.913-1.19c1.045,0,1.551,0.697,1.488,1.331
	c0,0.6-0.508,1.172-1.236,1.172c-0.539,0-0.855-0.254-1.107-0.476c-0.19-0.126-0.412-0.285-0.666-0.285
	c-0.221,0-0.716,0.055-1.128,0.245c0.253,0.633,0.59,1.274,0.59,2.352c0,1.155-2.337-3.834-1.582-3.26
	C18.689,499.277,18.746,499.323,18.847,499.345z"/>
<g>
	<path d="M10.054,523.042c-1.141-0.698-1.615-1.52-1.615-2.564c0-1.774,1.805-3.135,3.325-3.8v-0.128
		c-3.003-0.501-3.325-3.419-3.113-5.313l2.156-0.018c-1.09,0.713-1.043,1.934-0.374,2.685c0.78,0.873,2.882,0.715,5.005,0.587
		c2.597-0.124,4.181,0.159,5.447,1.141c1.362,1.014,1.521,2.28,1.552,3.041c0,1.49-0.539,2.724-2.124,3.896
		c-0.821,0.603-2.723,1.488-5.414,1.488C13.378,524.056,11.574,523.896,10.054,523.042z M20.503,519.781
		c0-1.871-1.424-3.295-4.592-3.073l-3.039,0.22c-0.982,0.255-2.533,1.333-2.533,3.042c0,0.792,0.602,1.742,1.235,2.185
		c1.044,0.728,2.186,0.886,4.434,0.886C17.18,523.042,20.663,522.218,20.503,519.781z"/>
</g>
<g>
	<path fill="#FFFFFF" d="M-105.758,507.869c0-0.719-0.039-3.088-0.058-3.438c-0.058-1.126-0.369-1.165-1.263-1.165h-0.602
		c-0.117,0-0.156-0.039-0.156-0.136v-0.486c0-0.097,0.039-0.136,0.156-0.136c0.311,0,1.185,0.059,2.583,0.059
		c0.622,0,1.787-0.059,2.467-0.059c1.515,0,2.758,0.136,3.438,0.524c1.107,0.603,1.496,1.496,1.496,2.642
		c0,1.923-0.854,2.409-2.37,3.205l0.058,0.039c1.884,0.622,3.146,1.786,3.146,3.845c0,0.992-0.603,2.351-1.496,2.914
		c-0.815,0.505-1.922,0.7-3.71,0.7c-1.34,0-2.098-0.059-2.914-0.059c-0.971,0-2.117,0.059-2.486,0.059
		c-0.233,0-0.272-0.039-0.272-0.117v-0.505c0-0.097,0.039-0.136,0.175-0.136h0.932c0.602,0,0.699-0.233,0.777-0.855
		c0.058-0.447,0.097-3.012,0.097-4.603L-105.758,507.869L-105.758,507.869L-105.758,507.869z M-104.049,508.626
		c0.369,0.039,0.699,0.039,1.03,0.039c1.107,0,1.981-0.175,2.447-0.505c0.796-0.602,1.088-1.476,1.088-2.331
		c0-0.738-0.233-1.515-0.952-2.04c-0.699-0.485-1.67-0.66-2.661-0.66c-0.272,0-0.486-0.02-0.641,0.02
		c-0.156,0.038-0.272,0.174-0.272,0.35c-0.02,0.388-0.039,2.078-0.039,3.69L-104.049,508.626L-104.049,508.626z M-104.049,510.491
		v2.68c0,1.787,0.427,2.584,2.04,2.584c1.632,0,3.127-0.778,3.127-3.09c0-1.574-0.796-2.603-1.942-3.05
		c-0.796-0.311-1.709-0.33-2.603-0.33h-0.622V510.491L-104.049,510.491z"/>
	<path fill="#FFFFFF" d="M-91.316,510.685v-1.865c-0.02-0.388-0.194-0.603-0.738-0.603h-0.195c-0.058,0-0.077-0.058-0.077-0.135
		v-0.466c0-0.058,0.038-0.097,0.116-0.097c0.097,0,1.302,0.059,1.651,0.059c0.233,0,1.923-0.059,2.175-0.059
		c1.166,0,2.04,0.331,2.525,0.757c0.427,0.408,0.68,0.972,0.68,1.418c0,1.34-0.757,2.118-2.292,2.662v0.038
		c0.447,0.098,0.835,0.7,1.632,1.826c0.272,0.388,0.718,0.971,1.087,1.243c0.272,0.194,0.524,0.214,0.874,0.214
		c0.077,0,0.097,0.058,0.097,0.175v0.389c0,0.078-0.039,0.136-0.117,0.136c-0.039,0-0.195-0.02-0.389-0.039
		c-0.174,0-0.408-0.02-0.603-0.02c-0.446,0-0.913,0.02-1.243,0.039c-0.369-0.272-1.224-1.845-1.399-2.137
		c-0.699-1.204-0.991-1.631-1.806-1.631c-0.194,0-0.369,0-0.505,0.039v0.466v2.098c0.039,0.272,0.155,0.485,0.544,0.485h0.505
		c0.077,0,0.116,0.039,0.116,0.098v0.465c0,0.097-0.039,0.136-0.155,0.136c-0.136,0-1.185-0.059-1.826-0.059
		c-0.486,0-1.476,0.059-1.612,0.059c-0.077,0-0.116-0.059-0.116-0.156v-0.446c0-0.06,0.039-0.098,0.116-0.098h0.233
		c0.466,0,0.699-0.078,0.699-0.504c0.02-0.953,0-2.098,0.02-3.283L-91.316,510.685L-91.316,510.685z M-89.84,511.967
		c0.136,0.019,0.33,0.039,0.583,0.039c2.156,0,2.486-1.515,2.486-2.02c0-0.583-0.292-1.107-0.641-1.34
		c-0.524-0.33-1.068-0.505-1.845-0.505c-0.292,0-0.583,0.077-0.583,0.427L-89.84,511.967L-89.84,511.967z"/>
	<path fill="#FFFFFF" d="M-77.107,511.481c0.116,0,1.262-0.059,1.418-0.097c0.505-0.136,0.699-0.407,0.699-1.01
		c0-0.077,0.019-0.097,0.097-0.097l0.427,0.02c0.078,0,0.136,0.038,0.117,0.116c-0.039,0.175-0.039,1.205-0.039,1.379
		c0,0.427,0.058,1.03,0.078,1.282c0,0.078-0.039,0.097-0.097,0.097l-0.408,0.039c-0.058,0-0.097,0-0.117-0.078
		c-0.097-0.485-0.214-0.796-0.719-0.913c-0.583-0.136-1.263-0.136-1.457-0.136v0.66c0,0.68,0.039,1.806,0.039,2.059
		c0,0.913,0.563,0.972,1.398,0.972c0.855,0,1.399-0.02,2.06-0.544c0.155-0.117,0.835-0.992,1.029-1.302
		c0.097-0.135,0.194-0.155,0.253-0.116l0.311,0.175c0.039,0.02,0.078,0.078,0.059,0.136l-0.7,2.059
		c-0.039,0.097-0.136,0.194-0.213,0.194c-0.058,0-0.35-0.02-1.146-0.039c-0.777,0-2.06-0.02-4.099-0.02
		c-0.175,0-0.524,0.02-0.874,0.02c-0.331,0.019-0.661,0.039-0.777,0.039c-0.097,0-0.116-0.058-0.116-0.136v-0.447
		c0-0.078,0.039-0.117,0.136-0.117h0.175c0.913,0,0.972-0.078,0.972-0.349v-2.934v-1.204c0-1.029-0.02-2.292-0.039-2.486
		c-0.058-0.407-0.175-0.485-0.952-0.485h-0.194c-0.058,0-0.077-0.039-0.077-0.136v-0.467c0-0.038,0.02-0.096,0.097-0.096
		c0.292,0,1.36,0.058,1.651,0.058l4.351-0.019c0.194,0,0.447-0.039,0.524-0.039c0.039,0,0.077,0.039,0.116,0.272
		c0.039,0.174,0.583,1.844,0.622,1.981c0.019,0.077,0.019,0.116-0.02,0.135l-0.311,0.136c-0.039,0.019-0.117,0.019-0.175-0.078
		c-0.039-0.059-0.971-1.146-1.302-1.457c-0.233-0.214-0.543-0.292-0.738-0.292l-2.059-0.039L-77.107,511.481L-77.107,511.481z"/>
	<path fill="#FFFFFF" d="M-59.652,516.085c0,0.175-0.058,0.369-0.292,0.369c-0.175,0-0.369-0.136-0.447-0.195
		c-0.136-0.136-0.796-0.933-1.593-1.883c-0.894-1.068-1.729-2.059-1.942-2.312c-0.466-0.544-2.04-2.642-2.351-2.993h-0.038v2.662
		c0,1.166,0.078,3.109,0.117,3.282c0.058,0.447,0.272,0.661,0.466,0.661h0.408c0.097,0,0.097,0.038,0.097,0.116v0.467
		c0,0.078,0,0.117-0.097,0.117c-0.136,0-0.913-0.059-1.476-0.059c-0.272,0-1.146,0.059-1.302,0.059
		c-0.039,0-0.058-0.039-0.058-0.136v-0.505c0-0.039,0.02-0.058,0.078-0.058h0.446c0.194,0,0.505-0.136,0.563-0.582
		c0.019-0.233,0.058-1.613,0.058-3.808v-2.04c0-0.699-0.486-1.03-1.029-1.03h-0.175c-0.078,0-0.117-0.039-0.117-0.116v-0.466
		c0-0.058,0.039-0.116,0.117-0.116c0.039,0,0.252,0.02,0.505,0.02c0.252,0.02,0.563,0.039,0.777,0.039
		c0.311,0,0.718-0.039,0.952-0.039c0.272,0,0.388,0.039,0.466,0.155c0.058,0.079,2.292,2.895,2.7,3.38
		c0.35,0.407,2.156,2.68,2.389,2.934h0.078v-1.282c0-1.107-0.02-1.71-0.058-2.332c0-0.466-0.058-1.593-0.156-1.825
		c-0.097-0.233-0.388-0.35-0.718-0.35h-0.331c-0.097,0-0.136-0.038-0.136-0.136v-0.466c0-0.058,0.039-0.097,0.136-0.097
		c0.136,0,0.971,0.059,1.593,0.059c0.408,0,1.088-0.059,1.224-0.059c0.097,0,0.136,0.039,0.136,0.155v0.409
		c0,0.078-0.039,0.135-0.116,0.135h-0.194c-0.485,0-0.583,0.137-0.622,0.408c-0.097,0.894-0.058,2.117-0.058,2.914L-59.652,516.085
		L-59.652,516.085z"/>
	<path fill="#FFFFFF" d="M-53.083,510.646c0-0.331-0.039-1.787-0.077-2.098c-0.02-0.174-0.194-0.331-0.544-0.331h-0.719
		c-0.058,0-0.078-0.039-0.078-0.136v-0.446c0-0.077,0.019-0.116,0.097-0.116c0.136,0,1.593,0.059,1.962,0.059
		c0.33,0,1.612-0.059,2.039-0.059c1.826,0,3.127,0.116,4.293,1.145c0.855,0.758,1.341,1.69,1.341,3.128
		c0,1.477-0.272,2.37-1.166,3.283c-1.204,1.243-3.574,1.282-4.118,1.282c-0.35,0-2.312-0.039-2.583-0.039
		c-0.252,0-1.709,0.059-1.806,0.059c-0.078,0-0.097-0.039-0.097-0.175v-0.426c0-0.06,0.02-0.098,0.097-0.098h0.854
		c0.252,0,0.408-0.214,0.427-0.311c0.039-0.176,0.077-2.817,0.077-3.808V510.646L-53.083,510.646z M-51.587,511.851
		c0,0.155,0.02,2.176,0.039,2.797c0,0.252,0.058,0.466,0.233,0.699c0.194,0.272,0.719,0.408,1.166,0.408
		c1.243,0,2.409-0.622,2.991-1.34c0.466-0.583,0.738-1.497,0.738-2.39c0.078-1.048-0.388-2.117-0.913-2.7
		c-0.68-0.738-1.749-1.222-3.089-1.222c-0.272,0-0.68,0-0.874,0.135c-0.194,0.098-0.252,0.252-0.272,0.465
		c-0.02,0.525-0.02,2.059-0.02,2.273L-51.587,511.851L-51.587,511.851z"/>
	<path fill="#FFFFFF" d="M-39.016,515.696c-0.718-0.466-1.729-1.826-1.729-3.651c0-0.796,0.136-1.962,1.068-3.07
		c1.146-1.379,2.351-1.632,3.632-1.632c0.893,0,1.942,0.176,2.914,1.03c0.835,0.738,1.573,1.941,1.573,3.691
		c0,0.933-0.194,1.884-0.777,2.7c-0.738,1.049-1.865,1.787-3.865,1.787C-36.879,516.551-38.025,516.357-39.016,515.696z
		 M-33.227,512.104c0-2.544-1.729-4.08-2.875-4.08c-0.175,0-0.99-0.194-1.903,0.719c-0.757,0.738-1.088,1.981-1.088,2.972
		c0,3.089,2.079,4.176,3.011,4.176C-33.421,515.89-33.227,513.151-33.227,512.104z"/>
	<path fill="#FFFFFF" d="M-19.115,516.085c0,0.175-0.058,0.369-0.292,0.369c-0.175,0-0.369-0.136-0.447-0.195
		c-0.136-0.136-0.796-0.933-1.593-1.883c-0.894-1.068-1.729-2.059-1.942-2.312c-0.466-0.544-2.04-2.642-2.351-2.993h-0.039v2.662
		c0,1.166,0.078,3.109,0.117,3.282c0.058,0.447,0.272,0.661,0.466,0.661h0.408c0.097,0,0.097,0.038,0.097,0.116v0.467
		c0,0.078,0,0.117-0.097,0.117c-0.136,0-0.913-0.059-1.476-0.059c-0.272,0-1.146,0.059-1.302,0.059
		c-0.039,0-0.058-0.039-0.058-0.136v-0.505c0-0.039,0.02-0.058,0.078-0.058h0.447c0.194,0,0.505-0.136,0.563-0.582
		c0.019-0.233,0.058-1.613,0.058-3.808v-2.04c0-0.699-0.485-1.03-1.029-1.03h-0.175c-0.078,0-0.117-0.039-0.117-0.116v-0.466
		c0-0.058,0.039-0.116,0.117-0.116c0.039,0,0.252,0.02,0.505,0.02c0.253,0.02,0.563,0.039,0.777,0.039
		c0.311,0,0.718-0.039,0.952-0.039c0.272,0,0.388,0.039,0.466,0.155c0.058,0.079,2.292,2.895,2.7,3.38
		c0.35,0.407,2.156,2.68,2.389,2.934h0.078v-1.282c0-1.107-0.02-1.71-0.058-2.332c0-0.466-0.058-1.593-0.156-1.825
		c-0.097-0.233-0.388-0.35-0.718-0.35h-0.331c-0.097,0-0.136-0.038-0.136-0.136v-0.466c0-0.058,0.039-0.097,0.136-0.097
		c0.136,0,0.971,0.059,1.593,0.059c0.408,0,1.088-0.059,1.224-0.059c0.097,0,0.136,0.039,0.136,0.155v0.409
		c0,0.078-0.039,0.135-0.117,0.135h-0.194c-0.486,0-0.583,0.137-0.622,0.408c-0.097,0.894-0.058,2.117-0.058,2.914V516.085
		L-19.115,516.085z"/>
</g>
<g>
	<path fill="#FFFFFF" d="M58.723,511.482c0-0.699-0.214-0.893-0.796-0.893H57.11c-0.097,0-0.137-0.039-0.137-0.117v-0.485
		c0-0.117,0.02-0.155,0.118-0.155c0.272,0,1.145,0.058,2.466,0.058c1.398,0,2.02-0.058,2.293-0.058c0.136,0,0.155,0.058,0.155,0.136
		v0.466c0,0.078-0.02,0.156-0.136,0.156h-0.758c-0.35,0-0.602,0.136-0.602,0.738v2.563c0,0.272,0.078,0.466,0.078,0.622
		c0,0.155-0.117,0.233-0.312,0.311c-1.574,0.796-3.127,1.243-5.302,1.243c-1.729,0-4.098-0.641-5.439-2.215
		c-1.185-1.34-1.787-2.992-1.787-5.341c0-1.768,0.758-3.652,2.195-4.934c1.379-1.185,3.127-1.846,5.458-1.846
		c1.671,0,3.166,0.622,3.827,1.127c0.214,0.174,0.331,0.136,0.446-0.02l0.292-0.35c0.078-0.078,0.156-0.174,0.272-0.174
		c0.136,0,0.175,0.097,0.175,0.233l0.059,3.71c0,0.098-0.02,0.175-0.098,0.175l-0.349,0.039c-0.078,0-0.136-0.058-0.156-0.155
		c-0.156-0.544-0.485-1.457-1.165-2.292c-0.583-0.718-1.787-1.593-3.535-1.593c-1.34,0-2.544,0.331-3.711,1.574
		c-1.048,1.107-1.709,2.72-1.709,4.468c0,2.292,0.641,4.293,1.845,5.438c0.971,0.933,2.156,1.38,3.419,1.38
		c1.554,0,2.505-0.273,3.185-0.661c0.447-0.272,0.524-0.699,0.524-1.71L58.723,511.482L58.723,511.482z"/>
	<path fill="#FFFFFF" d="M67.713,515.153c-0.719-0.466-1.729-1.826-1.729-3.653c0-0.796,0.136-1.961,1.068-3.069
		c1.146-1.379,2.35-1.631,3.632-1.631c0.894,0,1.942,0.174,2.914,1.029c0.835,0.738,1.573,1.941,1.573,3.691
		c0,0.933-0.194,1.884-0.777,2.7c-0.738,1.049-1.863,1.787-3.865,1.787C69.849,516.007,68.704,515.814,67.713,515.153z
		 M73.501,511.56c0-2.545-1.728-4.079-2.875-4.079c-0.175,0-0.991-0.195-1.904,0.718c-0.757,0.738-1.087,1.981-1.087,2.973
		c0,3.089,2.079,4.176,3.011,4.176C73.307,515.347,73.501,512.608,73.501,511.56z"/>
	<path fill="#FFFFFF" d="M79.824,508.296c0-0.35-0.078-0.621-0.66-0.621h-0.35c-0.078,0-0.117-0.039-0.117-0.117v-0.485
		c0-0.058,0.039-0.097,0.117-0.097c0.116,0,1.359,0.059,1.962,0.059c0.466,0,1.612-0.059,1.729-0.059
		c0.097,0,0.135,0.039,0.135,0.117v0.466c0,0.058-0.039,0.117-0.117,0.117H82.25c-0.621,0-0.835,0.194-0.854,0.35
		c-0.039,0.253-0.019,0.913-0.019,1.632v0.797c0,0.64,0.038,2.195,0.038,2.466c0.019,0.544,0.136,1.146,0.447,1.554
		c0.445,0.602,1.281,0.836,1.805,0.836c0.641,0,1.359-0.253,1.768-0.641c0.543-0.505,0.642-1.243,0.642-2.02v-2.681
		c0-0.913-0.04-1.554-0.079-1.767c-0.039-0.331-0.233-0.524-0.835-0.524H84.95c-0.078,0-0.117-0.059-0.117-0.156v-0.427
		c0-0.058,0.039-0.116,0.117-0.116c0.096,0,1.184,0.058,1.69,0.058c0.33,0,1.301-0.058,1.417-0.058c0.099,0,0.137,0.058,0.137,0.136
		v0.427c0,0.078-0.039,0.137-0.118,0.137h-0.174c-0.68,0-0.738,0.311-0.796,0.524c-0.039,0.155-0.039,1.632-0.039,1.864
		c0,0.176-0.039,2.332-0.059,2.817c-0.078,1.011-0.35,1.806-1.068,2.39c-0.523,0.466-1.321,0.738-2.583,0.738
		c-0.738,0-1.36-0.078-1.806-0.252c-0.874-0.35-1.321-0.875-1.534-1.652c-0.136-0.563-0.195-1.398-0.195-3.07v-2.74H79.824
		L79.824,508.296z"/>
	<path fill="#FFFFFF" d="M95.756,507.558c0,0.078-0.059,0.117-0.137,0.117h-0.446c-0.252,0-0.544,0.039-0.544,0.292
		c0,0.446,0.331,1.204,0.855,2.836c0.156,0.485,0.875,2.739,0.991,3.05h0.059c0.117-0.407,1.068-2.816,1.166-3.108
		c0.738-2.156,0.99-2.68,0.99-2.875c0-0.097-0.077-0.194-0.407-0.194h-0.215c-0.077,0-0.116-0.04-0.116-0.137v-0.446
		c0-0.058,0.039-0.117,0.116-0.117c0.117,0,1.127,0.059,1.574,0.059c0.35,0,1.223-0.059,1.34-0.059c0.078,0,0.118,0.039,0.118,0.136
		v0.408c0,0.077-0.04,0.156-0.118,0.156h-0.311c-0.369,0-0.641,0.117-0.816,0.292c-0.369,0.369-1.418,2.914-1.613,3.418
		c-0.175,0.407-1.767,4.215-1.922,4.468c-0.058,0.098-0.157,0.155-0.312,0.155c-0.156,0-0.252-0.136-0.311-0.292
		c-0.427-1.146-1.457-3.962-1.613-4.391l-0.137-0.426c-0.329-0.894-0.912-2.661-1.048-2.856c-0.157-0.214-0.312-0.368-0.563-0.368
		h-0.195c-0.078,0-0.098-0.059-0.098-0.117v-0.485c0-0.058,0.039-0.097,0.117-0.097c0.098,0,1.165,0.058,1.671,0.058
		c0.467,0,1.652-0.058,1.767-0.058c0.116,0,0.156,0.039,0.156,0.136L95.756,507.558L95.756,507.558z"/>
	<path fill="#FFFFFF" d="M107.622,510.938c0.116,0,1.263-0.059,1.418-0.097c0.505-0.136,0.699-0.407,0.699-1.01
		c0-0.078,0.02-0.098,0.098-0.098l0.427,0.02c0.078,0,0.136,0.039,0.117,0.117c-0.039,0.175-0.039,1.204-0.039,1.379
		c0,0.427,0.058,1.029,0.078,1.282c0,0.078-0.039,0.097-0.097,0.097l-0.408,0.039c-0.058,0-0.097,0-0.117-0.078
		c-0.098-0.485-0.213-0.796-0.718-0.913c-0.583-0.136-1.263-0.136-1.458-0.136v0.66c0,0.68,0.039,1.807,0.039,2.059
		c0,0.913,0.563,0.972,1.399,0.972c0.854,0,1.398-0.02,2.058-0.543c0.156-0.117,0.835-0.991,1.029-1.302
		c0.099-0.136,0.196-0.156,0.254-0.116l0.31,0.175c0.039,0.02,0.078,0.078,0.059,0.136l-0.699,2.059
		c-0.039,0.098-0.136,0.195-0.214,0.195c-0.058,0-0.349-0.02-1.146-0.039c-0.778,0-2.06-0.02-4.1-0.02
		c-0.174,0-0.523,0.02-0.873,0.02c-0.331,0.019-0.661,0.039-0.778,0.039c-0.097,0-0.116-0.058-0.116-0.136v-0.446
		c0-0.078,0.039-0.117,0.135-0.117h0.175c0.913,0,0.972-0.078,0.972-0.349v-2.934v-1.204c0-1.03-0.02-2.292-0.039-2.486
		c-0.058-0.407-0.175-0.485-0.952-0.485h-0.194c-0.059,0-0.078-0.039-0.078-0.137v-0.466c0-0.039,0.02-0.097,0.097-0.097
		c0.292,0,1.361,0.058,1.651,0.058l4.353-0.019c0.194,0,0.445-0.039,0.523-0.039c0.039,0,0.079,0.039,0.117,0.271
		c0.039,0.176,0.583,1.846,0.622,1.981c0.02,0.078,0.02,0.117-0.02,0.136l-0.312,0.136c-0.039,0.019-0.116,0.019-0.174-0.077
		c-0.039-0.059-0.972-1.146-1.301-1.458c-0.233-0.214-0.544-0.292-0.739-0.292l-2.059-0.039L107.622,510.938L107.622,510.938z"/>
	<path fill="#FFFFFF" d="M119.409,511.773c0,0.116,0,2.35,0.02,2.641c0.039,0.447,0.272,0.719,0.835,0.719h0.292
		c0.097,0,0.116,0.038,0.116,0.097v0.466c0,0.078-0.02,0.137-0.116,0.137c-0.156,0-1.165-0.059-2.04-0.059
		c-0.661,0-1.786,0.059-1.903,0.059c-0.079,0-0.118-0.059-0.118-0.156v-0.427c0-0.059,0.039-0.116,0.118-0.116h0.426
		c0.486,0,0.797-0.02,0.835-0.369c0.02-0.175,0.039-2.642,0.039-3.302v-0.855c0-0.311-0.039-2.253-0.039-2.525
		c0-0.213-0.174-0.407-0.99-0.407h-0.35c-0.098,0-0.117-0.06-0.117-0.137v-0.446c0-0.077,0.039-0.116,0.117-0.116
		c0.117,0,1.32,0.078,2.234,0.059c0.562,0,1.554-0.059,1.709-0.059c0.078,0,0.117,0.039,0.117,0.097v0.465
		c0,0.078-0.02,0.137-0.117,0.137h-0.33c-0.524,0-0.7,0.078-0.719,0.484c0,0.194-0.021,2.506-0.021,2.642L119.409,511.773
		L119.409,511.773z"/>
	<path fill="#FFFFFF" d="M127.547,512.414c-0.078,0.234-0.699,1.845-0.777,2.079c-0.117,0.387-0.058,0.641,0.35,0.641h0.484
		c0.117,0,0.137,0.058,0.137,0.136v0.427c0,0.078-0.02,0.137-0.117,0.137c-0.156,0-1.184-0.059-1.496-0.059
		c-0.368,0-1.34,0.059-1.515,0.059c-0.078,0-0.078-0.098-0.078-0.176v-0.407c0-0.078,0-0.116,0.078-0.116h0.272
		c0.331,0,0.641-0.195,0.797-0.408c0.135-0.156,1.125-2.486,1.592-3.458c0.137-0.272,1.282-2.914,1.399-3.244
		c0.039-0.117,0.155-0.33,0.02-0.389c-0.039-0.039-0.098-0.135-0.078-0.194c-0.02-0.039,0.02-0.097,0.195-0.136
		c0.369-0.059,0.913-0.408,1.088-0.563c0.038-0.077,0.116-0.136,0.233-0.136c0.116,0,0.155,0.078,0.194,0.213
		c0.273,0.777,1.262,3.555,1.516,4.332c0.292,0.971,1.126,3.263,1.262,3.457c0.253,0.35,0.583,0.525,0.914,0.525h0.368
		c0.078,0,0.098,0.058,0.098,0.116v0.407c0,0.058-0.02,0.176-0.137,0.176c-0.233,0-1.262-0.059-1.708-0.059
		c-0.37,0-1.517,0.059-1.768,0.059c-0.136,0-0.155-0.098-0.155-0.176v-0.407c0-0.059,0.02-0.116,0.097-0.116h0.311
		c0.234,0,0.312-0.176,0.312-0.331c-0.078-0.389-0.603-1.943-0.758-2.39H127.547L127.547,512.414z M130.48,511.793
		c-0.077-0.273-0.99-3.186-1.029-3.341c-0.039-0.117-0.059-0.194-0.116-0.194c-0.059,0-0.098,0.058-0.156,0.213
		c-0.06,0.155-1.243,3.127-1.34,3.322H130.48z"/>
</g>
</svg>
